<svg xmlns="http://www.w3.org/2000/svg" viewBox="0 0 1200 630" role="img" aria-label="VistecPartners — AI Revenue Operating System">
  <defs>
    <linearGradient id="bg" x1="0" y1="0" x2="1" y2="1">
      <stop offset="0%" stop-color="#0A0F1E"/>
      <stop offset="60%" stop-color="#0F172A"/>
      <stop offset="100%" stop-color="#1E293B"/>
    </linearGradient>
    <radialGradient id="glow" cx="80%" cy="20%" r="40%">
      <stop offset="0%" stop-color="#14B8A6" stop-opacity="0.35"/>
      <stop offset="100%" stop-color="#14B8A6" stop-opacity="0"/>
    </radialGradient>
    <radialGradient id="glow2" cx="10%" cy="90%" r="45%">
      <stop offset="0%" stop-color="#0B5ED7" stop-opacity="0.35"/>
      <stop offset="100%" stop-color="#0B5ED7" stop-opacity="0"/>
    </radialGradient>
    <linearGradient id="accent" x1="0" x2="1">
      <stop offset="0%" stop-color="#5EEAD4"/>
      <stop offset="100%" stop-color="#60A5FA"/>
    </linearGradient>
    <pattern id="dots" width="24" height="24" patternUnits="userSpaceOnUse">
      <circle cx="1" cy="1" r="1" fill="#94A3B8" fill-opacity="0.08"/>
    </pattern>
  </defs>
  <rect width="1200" height="630" fill="url(#bg)"/>
  <rect width="1200" height="630" fill="url(#dots)"/>
  <rect width="1200" height="630" fill="url(#glow)"/>
  <rect width="1200" height="630" fill="url(#glow2)"/>

  <g transform="translate(80,80)">
    <rect width="56" height="56" rx="12" fill="url(#accent)"/>
    <path fill="#0A0F1E" d="M14 16h7l5 16 5-16h7L29 44h-7L14 16Zm27 0h4v28h-4V16Z"/>
    <text x="74" y="38" fill="#ffffff" font-family="Inter, system-ui, sans-serif" font-size="28" font-weight="700">Vistec<tspan fill="#2DD4BF">Partners</tspan></text>
  </g>

  <text x="80" y="310" fill="#2DD4BF" font-family="Inter, system-ui, sans-serif" font-size="22" font-weight="600" letter-spacing="6">AI REVENUE OPERATING SYSTEM</text>
  <text x="80" y="400" fill="#ffffff" font-family="Inter, system-ui, sans-serif" font-size="78" font-weight="700">AI That Actually</text>
  <text x="80" y="480" fill="url(#accent)" font-family="Inter, system-ui, sans-serif" font-size="78" font-weight="700">Collects Revenue.</text>

  <g transform="translate(80,530)" fill="#94A3B8" font-family="Inter, system-ui, sans-serif" font-size="20" font-weight="500">
    <text>PARCS · 40+ EHR integrations · 30% fewer denials · 98.5% clean claims</text>
  </g>

  <g transform="translate(900,200)" stroke="url(#accent)" stroke-width="1.4" fill="none" opacity="0.55">
    <rect x="0" y="0" width="220" height="36" rx="8"/>
    <rect x="0" y="52" width="220" height="36" rx="8"/>
    <rect x="0" y="104" width="220" height="36" rx="8"/>
    <rect x="0" y="156" width="220" height="36" rx="8"/>
    <rect x="0" y="208" width="220" height="36" rx="8"/>
  </g>
</svg>
